<?xml version="1.0" encoding="UTF-8" standalone="no"?><!DOCTYPE svg PUBLIC "-//W3C//DTD SVG 1.1//EN" "http://www.w3.org/Graphics/SVG/1.1/DTD/svg11.dtd"><svg width="100%" height="100%" viewBox="0 0 64 64" version="1.1" xmlns="http://www.w3.org/2000/svg" xmlns:xlink="http://www.w3.org/1999/xlink" xml:space="preserve" xmlns:serif="http://www.serif.com/" style="fill-rule:evenodd;clip-rule:evenodd;stroke-linejoin:round;stroke-miterlimit:2;"><g id="book"><path d="M6.445,14.35c0.006,-0.083 0.016,-0.168 0.03,-0.255c0.86,-4.213 2.846,-8.151 6.872,-9.915c1.371,-0.574 3.33,-1.285 3.521,-1.278c9.563,-0.453 19.148,-0.061 28.721,0c6.235,0.118 11.858,5.542 11.979,12.261c0.072,12.16 0,24.32 0,36.481c-0.033,2.744 -3.371,5.175 -6.09,5.21l-4.712,0l-0.001,0.944c-0.041,3.186 -2.665,6.008 -5.855,6.13c-9.881,0.124 -16.763,0.063 -26.643,0.001c-4.131,-0.081 -7.811,-3.829 -7.838,-8.119l0,-41.263c0.003,-0.066 0.008,-0.132 0.016,-0.197Zm13.833,6.713c0.275,-0.408 0.785,-0.59 1.256,-0.446c0.471,0.144 0.794,0.579 0.794,1.071c0,2.324 0,5.255 0,7.249c0,1.352 0.894,2.541 2.193,2.917c3.271,0.945 9.476,2.739 13.521,3.907c0.934,0.27 1.692,0.953 2.058,1.854c0.366,0.9 0.298,1.918 -0.182,2.763c-2.058,3.613 -5.271,9.255 -7.48,13.134c-0.293,0.515 -0.896,0.768 -1.469,0.616c-0.573,-0.151 -0.972,-0.67 -0.972,-1.262c0,-2.758 0,-6.025 0,-7.986c0,-1.04 -0.678,-1.958 -1.672,-2.263c-3.261,-1.002 -10.541,-3.238 -14.989,-4.604c-0.867,-0.266 -1.557,-0.927 -1.86,-1.783c-0.303,-0.855 -0.183,-1.803 0.323,-2.556c2.371,-3.525 6.151,-9.149 8.479,-12.611Zm25.154,-13.739c0,0 -22.793,-0.328 -28.136,0c-1.452,0.089 -3.338,1.156 -3.919,1.967c-0.565,0.787 -0.373,2.39 0.431,2.897c0.804,0.508 4.392,0.148 4.392,0.148l21.738,0c3.554,0.046 6.687,3.121 6.825,6.822c0.143,11.122 0.041,21.246 0.01,32.369c1.803,0.106 5.437,0.142 5.475,-0.877c0.147,-12.177 0.216,-23.357 -0.002,-35.532c-0.123,-4.114 -2.639,-7.767 -6.814,-7.794Z" style="fill:#fff;"/></g></svg>