<?xml version="1.0" encoding="UTF-8" standalone="no"?><!DOCTYPE svg PUBLIC "-//W3C//DTD SVG 1.1//EN" "http://www.w3.org/Graphics/SVG/1.1/DTD/svg11.dtd"><svg width="100%" height="100%" viewBox="0 0 64 64" version="1.1" xmlns="http://www.w3.org/2000/svg" xmlns:xlink="http://www.w3.org/1999/xlink" xml:space="preserve" xmlns:serif="http://www.serif.com/" style="fill-rule:evenodd;clip-rule:evenodd;stroke-linejoin:round;stroke-miterlimit:2;"><path id="cog" d="M55.204,24.662l-1.614,-3.923c0,0 3.759,-8.659 3.425,-8.992l-4.976,-4.963c-0.343,-0.341 -8.827,3.611 -8.827,3.611l-3.913,-1.614c0,0 -3.459,-8.781 -3.934,-8.781l-7.02,0c-0.488,0 -3.688,8.798 -3.688,8.798l-3.908,1.622c0,0 -8.66,-3.763 -8.994,-3.425l-4.968,4.967c-0.343,0.342 3.609,8.832 3.609,8.832l-1.613,3.914c0,0 -8.783,3.456 -8.783,3.919l0,7.032c0,0.489 8.801,3.692 8.801,3.692l1.617,3.906c0,0 -3.758,8.658 -3.429,8.991l4.972,4.977c0.339,0.332 8.827,-3.62 8.827,-3.62l3.917,1.618c0,0 3.455,8.777 3.934,8.777l7.021,0c0.488,0 3.688,-8.798 3.688,-8.798l3.921,-1.622c0,0 8.642,3.763 8.976,3.43l4.977,-4.968c0.347,-0.35 -3.618,-8.828 -3.618,-8.828l1.613,-3.914c0,0 8.783,-3.464 8.783,-3.935l0,-7.024c0.004,-0.489 -8.796,-3.679 -8.796,-3.679Zm-12.942,7.336c0,5.655 -4.602,10.256 -10.26,10.256c-5.649,0 -10.26,-4.601 -10.26,-10.256c0,-5.651 4.611,-10.248 10.26,-10.248c5.658,0 10.26,4.597 10.26,10.248Z" style="fill:#fff;fill-rule:nonzero;"/></svg>